<?xml version="1.0" encoding="UTF-8" standalone="no"?>
<svg
   xmlns:dc="http://purl.org/dc/elements/1.1/"
   xmlns:cc="http://creativecommons.org/ns#"
   xmlns:rdf="http://www.w3.org/1999/02/22-rdf-syntax-ns#"
   xmlns:svg="http://www.w3.org/2000/svg"
   xmlns="http://www.w3.org/2000/svg"
   viewBox="0 0 108.24 67.493332"
   height="67.493332"
   width="108.24"
   xml:space="preserve"
   id="svg2"
   version="1.1"><metadata
     id="metadata8"><rdf:RDF><cc:Work
         rdf:about=""><dc:format>image/svg+xml</dc:format><dc:type
           rdf:resource="http://purl.org/dc/dcmitype/StillImage" /></cc:Work></rdf:RDF></metadata><defs
     id="defs6"><clipPath
       id="clipPath102"
       clipPathUnits="userSpaceOnUse"><path
         id="path100"
         d="M 155.109,169.918 C 85,169.914 36.5234,184.703 29.1953,213.289 v 0 l 1.5977,0.41 c -0.6016,2.352 -0.8985,4.758 -0.8985,7.223 -0.0507,14.914 11.0977,32.324 31.5,50.215 45.1835,39.093 134.5505,81.218 240.1485,108.273 71.195,18.25 138.516,27.141 192.746,27.141 0.008,0 0.008,0 0.016,0 0.011,0 0.031,0 0.047,0 34.914,0 64.406,-3.699 85.933,-10.883 17.735,-5.914 29.906,-14.133 35.578,-24.336 -28.617,4.07 -59.242,6.211 -91.078,6.215 -78.972,-0.004 -150.492,-13.176 -202.426,-36.313 -51.871,-23.101 -84.511,-56.359 -84.55,-96.754 0.004,-2.101 0.093,-4.187 0.269,-6.265 l -0.258,-0.004 1.43,-60.148 c 0.008,-0.5 0.02,-0.997 0.035,-1.497 l 0.02,-0.722 c -30.297,-3.969 -58.684,-5.926 -84.196,-5.926 m 86.942,29.254 -0.524,21.973 c 1.207,-3.754 2.7,-7.461 4.465,-11.106 -1.586,-3.555 -2.906,-7.18 -3.941,-10.867 m 5.781,14.719 c -4.418,9.875 -6.734,20.117 -6.723,30.589 -0.039,38.379 31.196,70.829 82.594,93.743 51.32,22.871 122.457,36.023 201.039,36.023 0.02,0 0.024,0 0.043,0 0.016,0 0.031,0 0.043,0 32.473,0 63.672,-2.246 92.727,-6.492 0.425,-1.094 0.785,-2.207 1.074,-3.344 l 1.598,0.41 -0.012,-0.023 c 4.086,-15.938 -5.102,-34.27 -24.692,-53.215 -22.589,2.543 -46.289,3.871 -70.738,3.875 -78.984,-0.008 -150.156,-14.043 -201.734,-38.043 -35.871,-16.695 -62.399,-38.305 -75.219,-63.523" /></clipPath></defs><g
     transform="matrix(1.3333333,0,0,-1.3333333,0,67.493333)"
     id="g10"><g
       transform="scale(0.1)"
       id="g12"><path
         id="path14"
         style="fill:#f8a690;fill-opacity:1;fill-rule:nonzero;stroke:none"
         d="m 808.457,179.586 c 0,-78.809 -132.078,-145.8868 -283.672,-145.8868 -151.609,0 -284.062,67.2148 -284.062,146.0238 l 0.98,-35.41 c 0,-78.7778 125.504,-142.66456 283.082,-142.66456 157.59,0 283.098,63.88676 283.098,142.66456 l 0.574,35.273" /><path
         id="path16"
         style="fill:#fcd69c;fill-opacity:1;fill-rule:nonzero;stroke:none"
         d="m 808.457,179.586 c 0,-78.809 -132.078,-145.8868 -283.672,-145.8868 -151.609,0 -283.89,66.4458 -283.89,145.2418 0,78.782 126.312,134.864 283.89,134.864 157.59,0 283.672,-55.438 283.672,-134.219" /><path
         id="path18"
         style="fill:#f6836c;fill-opacity:1;fill-rule:nonzero;stroke:none"
         d="m 808.457,179.586 h -1.648 C 806.867,141.191 774.453,105.047 722.719,78.5586 671.039,52.0781 600.336,35.3438 524.785,35.3477 449.223,35.3438 378.465,51.9219 326.734,78.2422 c -51.789,26.3318 -84.25,62.3128 -84.187,100.6988 -0.039,38.403 30.867,71.715 81.898,95.481 50.973,23.734 121.75,37.738 200.34,37.734 78.602,0.004 149.324,-13.84 200.238,-37.414 50.977,-23.605 81.825,-56.754 81.786,-95.156 h 1.648 1.652 c -0.039,40.379 -32.234,74.34 -83.699,98.148 -51.519,23.844 -122.633,37.715 -201.625,37.723 -78.984,-0.008 -150.156,-14.043 -201.734,-38.043 -51.52,-23.976 -83.766,-58.094 -83.805,-98.473 0.059,-40.41 33.738,-77.05 85.992,-103.6402 52.313,-26.6016 123.5,-43.2461 199.547,-43.25 76.043,0.0039 147.176,16.8047 199.438,43.5703 52.203,26.7539 85.828,63.5549 85.886,103.9649 h -1.652" /><path
         id="path20"
         style="fill:#4f4c4c;fill-opacity:1;fill-rule:nonzero;stroke:none"
         d="m 810.117,244.48 h -1.648 c 0.047,-38.421 -31.27,-73.718 -82.66,-99.41 -51.336,-25.672 -122.454,-41.609 -201.024,-41.605 -78.562,-0.004 -149.68,15.933 -201.015,41.605 -51.391,25.692 -82.707,60.989 -82.661,99.41 -0.039,38.379 31.196,70.829 82.594,93.743 51.332,22.879 122.481,36.027 201.082,36.023 78.61,0.004 149.758,-13.144 201.09,-36.023 51.398,-22.914 82.633,-55.364 82.594,-93.743 h 1.648 1.653 c -0.043,40.395 -32.68,73.653 -84.551,96.754 -51.934,23.137 -123.453,36.309 -202.434,36.313 -78.972,-0.004 -150.492,-13.176 -202.426,-36.313 -51.871,-23.101 -84.511,-56.359 -84.55,-96.754 0.046,-40.386 32.605,-76.421 84.484,-102.363 51.934,-25.957 123.48,-41.949 202.492,-41.953 79.02,0.004 150.567,15.996 202.5,41.953 51.879,25.942 84.438,61.977 84.485,102.363 h -1.653" /><path
         id="path22"
         style="fill:#4f4c4c;fill-opacity:1;fill-rule:nonzero;stroke:none"
         d="m 237.82,238.211 2.235,-93.938 1.648,0.04 h -1.648 C 240.098,103.961 272.086,67.9102 323.41,41.9648 374.785,16 445.773,0.00390625 524.785,-0.00390625 603.805,0.00390625 674.797,16 726.176,41.9648 777.5,67.9102 809.488,103.961 809.531,144.313 h -1.648 l 1.648,-0.04 2.239,93.938 -3.301,0.078 -2.239,-93.953 v -0.023 C 806.273,105.887 775.512,70.6055 724.684,44.9102 673.91,19.2383 603.355,3.29297 524.785,3.29688 446.223,3.29297 375.672,19.2383 324.898,44.9102 274.074,70.6055 243.313,105.887 243.355,144.313 v 0.023 l -2.238,93.953 -3.297,-0.078" /><path
         id="path24"
         style="fill:#ffffff;fill-opacity:1;fill-rule:nonzero;stroke:none"
         d="m 384.688,220.914 c 0,-4.851 -4.954,-8.769 -11.067,-8.769 -6.121,0 -11.07,3.918 -11.07,8.769 0,4.844 4.949,8.77 11.07,8.77 6.113,0 11.067,-3.926 11.067,-8.77" /><path
         id="path26"
         style="fill:#f6836c;fill-opacity:1;fill-rule:nonzero;stroke:none"
         d="m 384.688,220.914 h -0.825 c 0,-2.137 -1.082,-4.09 -2.929,-5.555 -1.84,-1.461 -4.434,-2.39 -7.313,-2.386 -2.887,-0.004 -5.476,0.925 -7.316,2.382 -1.848,1.469 -2.93,3.422 -2.93,5.559 0,2.133 1.082,4.09 2.93,5.555 1.84,1.461 4.433,2.39 7.316,2.39 2.879,0 5.473,-0.929 7.313,-2.39 1.847,-1.465 2.929,-3.422 2.929,-5.555 h 0.825 0.828 c -0.043,5.461 -5.461,9.586 -11.895,9.598 -6.441,-0.012 -11.855,-4.137 -11.894,-9.598 0.039,-5.465 5.457,-9.582 11.894,-9.594 6.43,0.012 11.856,4.125 11.895,9.594 h -0.828" /><path
         id="path28"
         style="fill:#ffffff;fill-opacity:1;fill-rule:nonzero;stroke:none"
         d="m 473.391,253.383 c 0,-4.852 -4.961,-8.778 -11.075,-8.778 -6.113,0 -11.074,3.926 -11.074,8.778 0,4.844 4.961,8.769 11.074,8.769 6.114,0 11.075,-3.925 11.075,-8.769" /><path
         id="path30"
         style="fill:#f6836c;fill-opacity:1;fill-rule:nonzero;stroke:none"
         d="m 473.391,253.383 h -0.825 c -0.003,-2.137 -1.086,-4.094 -2.933,-5.559 -1.844,-1.465 -4.438,-2.394 -7.317,-2.39 -2.878,-0.004 -5.472,0.925 -7.32,2.39 -1.844,1.465 -2.93,3.422 -2.93,5.559 0,2.129 1.086,4.086 2.93,5.555 1.848,1.46 4.442,2.39 7.32,2.386 2.879,0.004 5.473,-0.926 7.317,-2.386 1.847,-1.469 2.93,-3.426 2.933,-5.555 h 0.825 0.824 c -0.039,5.457 -5.465,9.582 -11.899,9.594 -6.433,-0.012 -11.859,-4.137 -11.898,-9.594 0.039,-5.465 5.465,-9.59 11.898,-9.602 6.434,0.012 11.86,4.137 11.899,9.602 h -0.824" /><path
         id="path32"
         style="fill:#ffffff;fill-opacity:1;fill-rule:nonzero;stroke:none"
         d="m 498.652,209.422 c 0,-4.856 -4.961,-8.77 -11.074,-8.77 -6.113,0 -11.062,3.914 -11.062,8.77 0,4.844 4.949,8.769 11.062,8.769 6.113,0 11.074,-3.925 11.074,-8.769" /><path
         id="path34"
         style="fill:#f6836c;fill-opacity:1;fill-rule:nonzero;stroke:none"
         d="m 498.652,209.422 h -0.824 c 0,-2.137 -1.086,-4.094 -2.93,-5.559 -1.843,-1.461 -4.437,-2.386 -7.32,-2.386 -2.879,0 -5.469,0.925 -7.312,2.386 -1.844,1.465 -2.926,3.422 -2.926,5.559 0,2.133 1.082,4.086 2.926,5.555 1.843,1.461 4.433,2.39 7.312,2.39 2.883,0 5.477,-0.929 7.32,-2.39 1.844,-1.469 2.93,-3.426 2.93,-5.555 h 0.824 0.828 c -0.042,5.461 -5.468,9.586 -11.902,9.594 -6.433,-0.008 -11.848,-4.137 -11.887,-9.594 0.039,-5.469 5.457,-9.586 11.887,-9.594 6.434,0.008 11.86,4.125 11.902,9.594 h -0.828" /><path
         id="path36"
         style="fill:#ffffff;fill-opacity:1;fill-rule:nonzero;stroke:none"
         d="m 452.023,184.762 c 0,-4.844 -4.96,-8.77 -11.074,-8.77 -6.113,0 -11.074,3.926 -11.074,8.77 0,4.843 4.961,8.769 11.074,8.769 6.114,0 11.074,-3.926 11.074,-8.769" /><path
         id="path38"
         style="fill:#f6836c;fill-opacity:1;fill-rule:nonzero;stroke:none"
         d="m 452.023,184.762 h -0.824 c -0.004,-2.129 -1.086,-4.086 -2.933,-5.551 -1.844,-1.465 -4.438,-2.395 -7.317,-2.391 -2.879,-0.004 -5.472,0.926 -7.316,2.391 -1.848,1.465 -2.934,3.422 -2.934,5.551 0,2.133 1.086,4.09 2.934,5.554 1.844,1.461 4.437,2.395 7.316,2.391 2.879,0.004 5.473,-0.93 7.317,-2.391 1.847,-1.464 2.929,-3.421 2.933,-5.554 h 0.824 0.825 c -0.039,5.461 -5.465,9.586 -11.899,9.597 -6.433,-0.011 -11.859,-4.136 -11.898,-9.597 0.039,-5.457 5.465,-9.582 11.898,-9.594 6.434,0.012 11.86,4.137 11.899,9.594 h -0.825" /><path
         id="path40"
         style="fill:#ffffff;fill-opacity:1;fill-rule:nonzero;stroke:none"
         d="m 546.945,162.73 c 0,-4.851 -4.961,-8.769 -11.074,-8.769 -6.113,0 -11.074,3.918 -11.074,8.769 0,4.844 4.961,8.77 11.074,8.77 6.113,0 11.074,-3.926 11.074,-8.77" /><path
         id="path42"
         style="fill:#f6836c;fill-opacity:1;fill-rule:nonzero;stroke:none"
         d="m 546.945,162.73 h -0.824 c -0.004,-2.132 -1.086,-4.089 -2.933,-5.554 -1.844,-1.461 -4.438,-2.391 -7.317,-2.391 -2.883,0 -5.476,0.93 -7.316,2.391 -1.848,1.465 -2.934,3.422 -2.934,5.554 0,2.133 1.086,4.09 2.934,5.555 1.843,1.461 4.433,2.395 7.316,2.391 2.879,0.004 5.473,-0.93 7.317,-2.391 1.847,-1.465 2.929,-3.422 2.933,-5.555 h 0.824 0.825 c -0.04,5.461 -5.465,9.586 -11.899,9.594 -6.433,-0.008 -11.859,-4.133 -11.898,-9.594 0.039,-5.468 5.465,-9.582 11.898,-9.593 6.434,0.011 11.859,4.125 11.899,9.593 h -0.825" /><path
         id="path44"
         style="fill:#ffffff;fill-opacity:1;fill-rule:nonzero;stroke:none"
         d="m 563.691,212.145 c 0,-4.852 -4.949,-8.778 -11.074,-8.778 -6.113,0 -11.062,3.926 -11.062,8.778 0,4.843 4.949,8.769 11.062,8.769 6.125,0 11.074,-3.926 11.074,-8.769" /><path
         id="path46"
         style="fill:#f6836c;fill-opacity:1;fill-rule:nonzero;stroke:none"
         d="m 563.691,212.145 h -0.824 c 0,-2.137 -1.082,-4.094 -2.929,-5.563 -1.84,-1.461 -4.434,-2.391 -7.321,-2.391 -2.879,0 -5.469,0.93 -7.312,2.391 -1.844,1.469 -2.926,3.426 -2.926,5.563 0,2.132 1.082,4.089 2.926,5.554 1.843,1.461 4.433,2.395 7.312,2.391 2.887,0.004 5.481,-0.93 7.321,-2.391 1.847,-1.465 2.929,-3.422 2.929,-5.554 h 0.824 0.829 c -0.04,5.46 -5.457,9.585 -11.903,9.593 -6.433,-0.008 -11.847,-4.133 -11.887,-9.593 0.04,-5.465 5.454,-9.594 11.887,-9.602 6.446,0.008 11.863,4.137 11.903,9.602 h -0.829" /><path
         id="path48"
         style="fill:#ffffff;fill-opacity:1;fill-rule:nonzero;stroke:none"
         d="m 355.84,175.523 c 0,-4.843 -4.953,-8.769 -11.067,-8.769 -6.117,0 -11.07,3.926 -11.07,8.769 0,4.844 4.953,8.77 11.07,8.77 6.114,0 11.067,-3.926 11.067,-8.77" /><path
         id="path50"
         style="fill:#f6836c;fill-opacity:1;fill-rule:nonzero;stroke:none"
         d="m 355.84,175.523 h -0.824 c 0,-2.128 -1.082,-4.085 -2.93,-5.554 -1.844,-1.461 -4.434,-2.391 -7.313,-2.391 -2.882,0 -5.472,0.93 -7.316,2.391 -1.848,1.469 -2.93,3.426 -2.93,5.554 0,2.133 1.082,4.09 2.93,5.555 1.844,1.465 4.434,2.395 7.316,2.391 2.879,0.004 5.469,-0.926 7.313,-2.391 1.848,-1.465 2.93,-3.422 2.93,-5.555 h 0.824 0.824 c -0.035,5.461 -5.457,9.586 -11.891,9.594 -6.433,-0.008 -11.855,-4.133 -11.894,-9.594 0.039,-5.457 5.461,-9.582 11.894,-9.593 6.434,0.011 11.856,4.136 11.891,9.593 h -0.824" /><path
         id="path52"
         style="fill:#ffffff;fill-opacity:1;fill-rule:nonzero;stroke:none"
         d="m 426.945,270.922 c 0,-4.852 -4.957,-8.77 -11.07,-8.77 -6.117,0 -11.07,3.918 -11.07,8.77 0,4.844 4.953,8.769 11.07,8.769 6.113,0 11.07,-3.925 11.07,-8.769" /><path
         id="path54"
         style="fill:#f6836c;fill-opacity:1;fill-rule:nonzero;stroke:none"
         d="m 426.945,270.922 h -0.824 c -0.004,-2.137 -1.086,-4.09 -2.93,-5.559 -1.843,-1.461 -4.437,-2.39 -7.316,-2.386 -2.883,-0.004 -5.477,0.925 -7.316,2.386 -1.844,1.465 -2.926,3.422 -2.926,5.559 0,2.129 1.082,4.086 2.926,5.555 1.843,1.461 4.433,2.39 7.316,2.386 2.879,0.004 5.473,-0.925 7.316,-2.386 1.844,-1.469 2.926,-3.426 2.93,-5.555 h 0.824 0.825 c -0.04,5.457 -5.461,9.582 -11.895,9.594 -6.437,-0.012 -11.855,-4.137 -11.895,-9.594 0.04,-5.465 5.458,-9.586 11.895,-9.598 6.434,0.012 11.855,4.133 11.895,9.598 h -0.825" /><path
         id="path56"
         style="fill:#ffffff;fill-opacity:1;fill-rule:nonzero;stroke:none"
         d="m 520.793,279.691 c 0,-4.843 -4.953,-8.769 -11.066,-8.769 -6.122,0 -11.075,3.926 -11.075,8.769 0,4.844 4.953,8.774 11.075,8.774 6.113,0 11.066,-3.93 11.066,-8.774" /><path
         id="path58"
         style="fill:#f6836c;fill-opacity:1;fill-rule:nonzero;stroke:none"
         d="m 520.793,279.691 h -0.824 c -0.004,-2.132 -1.086,-4.089 -2.93,-5.554 -1.84,-1.461 -4.43,-2.395 -7.312,-2.391 -2.883,-0.004 -5.477,0.93 -7.321,2.391 -1.843,1.465 -2.926,3.422 -2.926,5.554 0,2.129 1.083,4.086 2.926,5.555 1.844,1.465 4.438,2.395 7.321,2.395 2.878,0 5.472,-0.93 7.312,-2.395 1.844,-1.469 2.926,-3.426 2.93,-5.555 h 0.824 0.824 c -0.039,5.457 -5.457,9.59 -11.89,9.598 -6.442,-0.008 -11.86,-4.141 -11.899,-9.598 0.039,-5.461 5.457,-9.586 11.899,-9.597 6.433,0.011 11.851,4.136 11.89,9.597 h -0.824" /><path
         id="path60"
         style="fill:#ffffff;fill-opacity:1;fill-rule:nonzero;stroke:none"
         d="m 473.391,144.324 c 0,-4.855 -4.961,-8.769 -11.075,-8.769 -6.113,0 -11.074,3.914 -11.074,8.769 0,4.844 4.961,8.77 11.074,8.77 6.114,0 11.075,-3.926 11.075,-8.77" /><path
         id="path62"
         style="fill:#f6836c;fill-opacity:1;fill-rule:nonzero;stroke:none"
         d="m 473.391,144.324 h -0.825 c -0.003,-2.136 -1.086,-4.094 -2.933,-5.558 -1.844,-1.461 -4.438,-2.387 -7.317,-2.387 -2.882,0 -5.476,0.926 -7.32,2.387 -1.844,1.464 -2.93,3.422 -2.93,5.558 0,2.129 1.086,4.086 2.93,5.555 1.848,1.461 4.442,2.391 7.32,2.391 2.879,0 5.473,-0.93 7.317,-2.391 1.847,-1.469 2.93,-3.426 2.933,-5.555 h 0.825 0.824 c -0.039,5.457 -5.465,9.586 -11.899,9.594 -6.433,-0.008 -11.859,-4.137 -11.898,-9.594 0.039,-5.469 5.465,-9.586 11.898,-9.594 6.43,0.008 11.86,4.125 11.899,9.594 h -0.824" /><path
         id="path64"
         style="fill:#ffffff;fill-opacity:1;fill-rule:nonzero;stroke:none"
         d="m 664.746,193.531 c 0,-4.843 -4.961,-8.769 -11.074,-8.769 -6.113,0 -11.063,3.926 -11.063,8.769 0,4.844 4.95,8.77 11.063,8.77 6.113,0 11.074,-3.926 11.074,-8.77" /><path
         id="path66"
         style="fill:#f6836c;fill-opacity:1;fill-rule:nonzero;stroke:none"
         d="m 664.746,193.531 h -0.824 c 0,-2.129 -1.082,-4.086 -2.93,-5.554 -1.844,-1.461 -4.437,-2.391 -7.32,-2.387 -2.879,-0.004 -5.469,0.926 -7.313,2.387 -1.843,1.468 -2.925,3.425 -2.925,5.554 0,2.133 1.082,4.09 2.925,5.555 1.844,1.465 4.434,2.391 7.313,2.391 2.883,0 5.476,-0.926 7.32,-2.391 1.848,-1.465 2.93,-3.422 2.93,-5.555 h 0.824 0.824 c -0.039,5.461 -5.465,9.586 -11.898,9.598 -6.434,-0.012 -11.848,-4.137 -11.887,-9.598 0.039,-5.457 5.453,-9.582 11.887,-9.593 6.433,0.011 11.859,4.136 11.898,9.593 h -0.824" /><path
         id="path68"
         style="fill:#ffffff;fill-opacity:1;fill-rule:nonzero;stroke:none"
         d="m 616.379,238.25 c 0,-4.844 -4.961,-8.77 -11.074,-8.77 -6.114,0 -11.075,3.926 -11.075,8.77 0,4.844 4.961,8.77 11.075,8.77 6.113,0 11.074,-3.926 11.074,-8.77" /><path
         id="path70"
         style="fill:#f6836c;fill-opacity:1;fill-rule:nonzero;stroke:none"
         d="m 616.379,238.25 h -0.824 c -0.004,-2.133 -1.086,-4.09 -2.934,-5.555 -1.844,-1.461 -4.437,-2.39 -7.316,-2.39 -2.879,0 -5.477,0.929 -7.317,2.39 -1.847,1.465 -2.933,3.422 -2.933,5.555 0,2.129 1.086,4.086 2.933,5.555 1.84,1.461 4.438,2.39 7.317,2.39 2.879,0 5.472,-0.929 7.316,-2.39 1.848,-1.469 2.93,-3.426 2.934,-5.555 h 0.824 0.824 c -0.039,5.461 -5.465,9.586 -11.898,9.594 -6.434,-0.008 -11.86,-4.133 -11.899,-9.594 0.039,-5.461 5.465,-9.586 11.899,-9.594 6.433,0.008 11.859,4.133 11.898,9.594 h -0.824" /><path
         id="path72"
         style="fill:#ffffff;fill-opacity:1;fill-rule:nonzero;stroke:none"
         d="m 574.766,153.961 c 0,-4.852 -4.961,-8.77 -11.075,-8.77 -6.113,0 -11.074,3.918 -11.074,8.77 0,4.844 4.961,8.769 11.074,8.769 6.114,0 11.075,-3.925 11.075,-8.769" /><path
         id="path74"
         style="fill:#f6836c;fill-opacity:1;fill-rule:nonzero;stroke:none"
         d="m 574.766,153.961 h -0.825 c 0,-2.137 -1.086,-4.09 -2.929,-5.559 -1.844,-1.457 -4.438,-2.386 -7.321,-2.382 -2.878,-0.004 -5.472,0.925 -7.316,2.382 -1.848,1.469 -2.93,3.422 -2.934,5.559 0.004,2.133 1.086,4.09 2.934,5.555 1.844,1.461 4.438,2.39 7.316,2.39 2.883,0 5.477,-0.929 7.321,-2.39 1.843,-1.465 2.929,-3.422 2.929,-5.555 h 0.825 0.828 c -0.043,5.461 -5.469,9.586 -11.903,9.598 -6.433,-0.012 -11.859,-4.137 -11.898,-9.598 0.039,-5.469 5.469,-9.582 11.898,-9.594 6.434,0.012 11.864,4.125 11.903,9.594 h -0.828" /><path
         id="path76"
         style="fill:#ffffff;fill-opacity:1;fill-rule:nonzero;stroke:none"
         d="m 633.809,184.762 c 0,-4.844 -4.961,-8.77 -11.075,-8.77 -6.113,0 -11.062,3.926 -11.062,8.77 0,4.843 4.949,8.769 11.062,8.769 6.114,0 11.075,-3.926 11.075,-8.769" /><path
         id="path78"
         style="fill:#f6836c;fill-opacity:1;fill-rule:nonzero;stroke:none"
         d="m 633.809,184.762 h -0.825 c 0,-2.129 -1.086,-4.086 -2.929,-5.551 -1.844,-1.465 -4.438,-2.395 -7.321,-2.391 -2.879,-0.004 -5.468,0.926 -7.312,2.387 -1.844,1.469 -2.926,3.426 -2.926,5.555 0,2.133 1.082,4.09 2.926,5.554 1.844,1.461 4.433,2.395 7.312,2.391 2.883,0.004 5.477,-0.93 7.321,-2.391 1.843,-1.464 2.929,-3.421 2.929,-5.554 h 0.825 0.828 c -0.043,5.461 -5.469,9.586 -11.903,9.597 -6.433,-0.011 -11.847,-4.136 -11.886,-9.597 0.039,-5.457 5.453,-9.582 11.886,-9.594 6.434,0.012 11.86,4.137 11.903,9.594 h -0.828" /><path
         id="path80"
         style="fill:#ffffff;fill-opacity:1;fill-rule:nonzero;stroke:none"
         d="m 675.813,171.5 c 0,-4.844 -4.954,-8.77 -11.067,-8.77 -6.113,0 -11.074,3.926 -11.074,8.77 0,4.844 4.961,8.77 11.074,8.77 6.113,0 11.067,-3.926 11.067,-8.77" /><path
         id="path82"
         style="fill:#f6836c;fill-opacity:1;fill-rule:nonzero;stroke:none"
         d="m 675.813,171.5 h -0.825 c -0.004,-2.129 -1.086,-4.086 -2.929,-5.555 -1.84,-1.461 -4.43,-2.39 -7.313,-2.386 -2.879,-0.004 -5.473,0.925 -7.316,2.386 -1.848,1.469 -2.93,3.426 -2.934,5.555 0.004,2.133 1.086,4.09 2.934,5.555 1.843,1.461 4.437,2.39 7.316,2.39 2.883,0 5.473,-0.929 7.313,-2.39 1.843,-1.465 2.925,-3.422 2.929,-5.555 h 0.825 0.824 c -0.039,5.461 -5.457,9.586 -11.891,9.598 -6.433,-0.012 -11.859,-4.137 -11.898,-9.598 0.039,-5.457 5.465,-9.582 11.898,-9.594 6.434,0.012 11.852,4.137 11.891,9.594 h -0.824" /><path
         id="path84"
         style="fill:#ffffff;fill-opacity:1;fill-rule:nonzero;stroke:none"
         d="m 697.961,218.191 c 0,-4.843 -4.953,-8.769 -11.066,-8.769 -6.122,0 -11.075,3.926 -11.075,8.769 0,4.844 4.953,8.77 11.075,8.77 6.113,0 11.066,-3.926 11.066,-8.77" /><path
         id="path86"
         style="fill:#f6836c;fill-opacity:1;fill-rule:nonzero;stroke:none"
         d="m 697.961,218.191 h -0.824 c -0.004,-2.132 -1.086,-4.089 -2.93,-5.554 -1.84,-1.461 -4.43,-2.391 -7.312,-2.391 -2.883,0 -5.477,0.93 -7.321,2.391 -1.844,1.465 -2.926,3.422 -2.929,5.554 0.003,2.129 1.085,4.086 2.929,5.555 1.844,1.461 4.438,2.391 7.321,2.391 2.882,0 5.472,-0.93 7.312,-2.391 1.844,-1.469 2.926,-3.426 2.93,-5.555 h 0.824 0.824 c -0.039,5.457 -5.457,9.586 -11.89,9.594 -6.442,-0.008 -11.86,-4.137 -11.899,-9.594 0.039,-5.457 5.457,-9.586 11.899,-9.593 6.433,0.007 11.851,4.136 11.89,9.593 h -0.824" /><path
         id="path88"
         style="fill:#ffffff;fill-opacity:1;fill-rule:nonzero;stroke:none"
         d="m 595.09,270.922 c 0,-4.852 -4.961,-8.77 -11.074,-8.77 -6.114,0 -11.075,3.918 -11.075,8.77 0,4.844 4.961,8.769 11.075,8.769 6.113,0 11.074,-3.925 11.074,-8.769" /><path
         id="path90"
         style="fill:#f6836c;fill-opacity:1;fill-rule:nonzero;stroke:none"
         d="m 595.09,270.922 h -0.824 c -0.004,-2.137 -1.086,-4.09 -2.934,-5.559 -1.844,-1.461 -4.437,-2.386 -7.316,-2.386 -2.879,0 -5.473,0.925 -7.321,2.386 -1.843,1.469 -2.929,3.422 -2.929,5.559 0,2.129 1.086,4.086 2.929,5.555 1.848,1.461 4.442,2.39 7.321,2.386 2.879,0.004 5.472,-0.925 7.316,-2.386 1.848,-1.469 2.93,-3.426 2.934,-5.555 h 0.824 0.824 c -0.039,5.457 -5.465,9.582 -11.898,9.594 -6.434,-0.012 -11.86,-4.137 -11.899,-9.594 0.039,-5.465 5.465,-9.586 11.899,-9.598 6.433,0.012 11.859,4.133 11.898,9.598 h -0.824" /><path
         id="path92"
         style="fill:#bdbcbc;fill-opacity:1;fill-rule:nonzero;stroke:none"
         d="M 59.2266,273.625 C 38.5469,255.43 26.6445,237.52 26.5938,220.922 c 0,-2.731 0.332,-5.418 1.0039,-8.043 l 3.1953,0.82 c -0.6016,2.352 -0.8985,4.758 -0.8985,7.223 -0.0507,14.918 11.0977,32.328 31.5078,50.223 l -2.1757,2.48" /><path
         id="path94"
         style="fill:#918f90;fill-opacity:1;fill-rule:nonzero;stroke:none"
         d="m 621.824,365.23 c -3.918,15.145 -18.48,26.219 -40.496,33.567 -22.066,7.351 -51.855,11.047 -87.023,11.051 -54.59,0 -122.141,-8.93 -193.582,-27.243 C 194.742,355.422 105.125,313.289 59.2344,273.633 l 2.1601,-2.496 c 45.1835,39.093 134.5505,81.218 240.1485,108.273 71.203,18.25 138.523,27.141 192.762,27.141 34.933,0 64.441,-3.699 85.98,-10.883 21.582,-7.199 34.93,-17.809 38.344,-31.258 l 3.195,0.82" /><g
         id="g96"><g
           clip-path="url(#clipPath102)"
           id="g98"><path
             id="path104"
             style="fill:#ffffff;fill-opacity:1;fill-rule:nonzero;stroke:none"
             d="m 29.1953,169.914 h 595.105 V 406.551 H 29.1953 Z" /></g></g><path
         id="path106"
         style="fill:#feeacc;fill-opacity:1;fill-rule:nonzero;stroke:none"
         d="m 242.594,176.277 -0.047,2.004 c 0,0.223 0,0.442 0,0.66 -0.012,9.426 1.844,18.543 5.398,27.289 4.953,-9.132 11.629,-17.878 19.832,-26.16 -8.527,-1.414 -16.914,-2.675 -25.183,-3.793 m 29.195,4.469 c -9.484,9.266 -16.953,19.098 -22.148,29.348 11.882,25.265 38.152,47.261 74.804,64.328 50.965,23.73 121.727,37.734 200.301,37.734 0.016,0 0.027,0 0.039,0 0.012,0 0.031,0 0.043,0 23.313,0 45.93,-1.218 67.547,-3.547 C 548.289,268.055 457.574,225.125 348.27,197.105 322.102,190.398 296.457,184.953 271.789,180.746 m 101.832,49.766 c -6.441,-0.012 -11.855,-4.137 -11.894,-9.598 0.039,-5.465 5.457,-9.582 11.894,-9.594 6.43,0.012 11.856,4.125 11.895,9.594 v 0 0 c -0.043,5.461 -5.461,9.586 -11.895,9.598 m 88.695,32.465 c -6.433,-0.012 -11.859,-4.137 -11.898,-9.594 0.039,-5.465 5.465,-9.59 11.898,-9.602 6.434,0.012 11.86,4.137 11.899,9.602 v 0 0 c -0.039,5.457 -5.465,9.582 -11.899,9.594 m -46.441,17.539 c -6.437,-0.012 -11.855,-4.137 -11.895,-9.594 0.04,-5.465 5.458,-9.586 11.895,-9.598 6.434,0.012 11.855,4.133 11.895,9.598 v 0 0 c -0.04,5.457 -5.461,9.582 -11.895,9.594 m 93.852,8.773 c -6.442,-0.008 -11.86,-4.141 -11.899,-9.598 0.039,-5.461 5.457,-9.586 11.899,-9.597 6.433,0.011 11.851,4.136 11.89,9.597 v 0 0 c -0.039,5.457 -5.457,9.59 -11.89,9.598" /><path
         id="path108"
         style="fill:#fabeac;fill-opacity:1;fill-rule:nonzero;stroke:none"
         d="m 239.285,176.566 c -0.015,0.5 -0.027,0.997 -0.035,1.497 l 0.035,-1.497 m 3.262,1.715 -0.496,20.891 c 1.035,3.687 2.355,7.312 3.941,10.867 0.617,-1.277 1.27,-2.551 1.953,-3.809 -3.554,-8.746 -5.41,-17.863 -5.398,-27.289 0,-0.218 0,-0.437 0,-0.66 m 7.094,31.813 c -0.637,1.261 -1.243,2.527 -1.809,3.797 12.82,25.218 39.348,46.828 75.219,63.523 51.578,24 122.75,38.035 201.734,38.043 24.449,-0.004 48.149,-1.332 70.738,-3.875 -1.019,-0.988 -2.074,-1.984 -3.148,-2.973 -21.617,2.329 -44.234,3.547 -67.547,3.547 -0.012,0 -0.031,0 -0.043,0 -0.012,0 -0.023,0 -0.039,0 -78.574,0 -149.336,-14.004 -200.301,-37.734 -36.652,-17.067 -62.922,-39.063 -74.804,-64.328" /><path
         id="path110"
         style="fill:#a7a5a6;fill-opacity:1;fill-rule:nonzero;stroke:none"
         d="m 267.777,180.07 c -8.203,8.282 -14.879,17.028 -19.832,26.16 -0.683,1.258 -1.336,2.532 -1.953,3.809 -1.765,3.645 -3.258,7.352 -4.465,11.106 l -0.41,17.144 -3.039,-0.074 c -0.176,2.078 -0.265,4.164 -0.269,6.265 0.039,40.395 32.679,73.653 84.55,96.754 51.934,23.137 123.454,36.309 202.426,36.313 31.836,-0.004 62.461,-2.145 91.078,-6.215 0.649,-1.168 1.211,-2.359 1.692,-3.578 -29.055,4.246 -60.254,6.492 -92.727,6.492 -0.012,0 -0.027,0 -0.043,0 -0.019,0 -0.023,0 -0.043,0 -78.582,0 -149.719,-13.152 -201.039,-36.023 -51.398,-22.914 -82.633,-55.364 -82.594,-93.743 -0.011,-10.472 2.305,-20.714 6.723,-30.589 0.566,-1.27 1.172,-2.536 1.809,-3.797 5.195,-10.25 12.664,-20.082 22.148,-29.348 -1.336,-0.226 -2.684,-0.453 -4.012,-0.676" /><path
         id="path112"
         style="fill:#a7a5a6;fill-opacity:1;fill-rule:nonzero;stroke:none"
         d="m 239.305,175.844 -0.02,0.722 -0.035,1.497 -1.43,60.148 0.258,0.004 3.039,0.074 0.41,-17.144 0.524,-21.973 0.496,-20.891 0.047,-2.004 c -1.098,-0.144 -2.199,-0.293 -3.289,-0.433" /><path
         id="path114"
         style="fill:#ffffff;fill-opacity:1;fill-rule:nonzero;stroke:none"
         d="m 373.625,212.973 c -0.004,0 -0.004,0 -0.004,0 -0.004,0 -0.004,0 -0.008,0 -2.879,0 -5.468,0.925 -7.308,2.382 -1.848,1.469 -2.93,3.422 -2.93,5.559 0,2.133 1.082,4.09 2.93,5.555 1.84,1.461 4.429,2.39 7.308,2.39 0.004,0 0.004,0 0.008,0 0,0 0,0 0.004,0 2.879,0 5.469,-0.929 7.309,-2.39 1.847,-1.465 2.929,-3.422 2.929,-5.555 0,-2.137 -1.082,-4.09 -2.929,-5.555 -1.84,-1.461 -4.43,-2.386 -7.309,-2.386" /><path
         id="path116"
         style="fill:#fabeac;fill-opacity:1;fill-rule:nonzero;stroke:none"
         d="m 373.621,211.32 c -6.437,0.012 -11.855,4.129 -11.894,9.594 0.039,5.461 5.453,9.586 11.894,9.598 6.434,-0.012 11.852,-4.137 11.895,-9.598 v 0 0 0 c -0.039,-5.469 -5.465,-9.582 -11.895,-9.594 m 0,1.653 c 0,0 0,0 0.004,0 2.879,0 5.469,0.925 7.309,2.386 1.847,1.465 2.929,3.418 2.929,5.555 0,2.133 -1.082,4.09 -2.929,5.555 -1.84,1.461 -4.43,2.39 -7.309,2.39 -0.004,0 -0.004,0 -0.004,0 -0.004,0 -0.004,0 -0.008,0 -2.879,0 -5.468,-0.929 -7.308,-2.39 -1.848,-1.465 -2.93,-3.422 -2.93,-5.555 0,-2.137 1.082,-4.09 2.93,-5.559 1.84,-1.457 4.429,-2.382 7.308,-2.382 0.004,0 0.004,0 0.008,0 m 11.895,7.941 v 0 0" /><path
         id="path118"
         style="fill:#ffffff;fill-opacity:1;fill-rule:nonzero;stroke:none"
         d="m 462.32,245.434 h -0.004 c -0.003,0 -0.003,0 -0.007,0 -2.875,0 -5.469,0.925 -7.313,2.39 -1.844,1.465 -2.93,3.422 -2.93,5.559 0,2.129 1.086,4.086 2.93,5.555 1.844,1.457 4.438,2.386 7.313,2.386 0.004,0 0.004,0 0.007,0 h 0.004 c 2.879,0 5.469,-0.929 7.313,-2.386 1.847,-1.469 2.93,-3.426 2.933,-5.555 -0.003,-2.137 -1.086,-4.094 -2.933,-5.559 -1.844,-1.465 -4.434,-2.39 -7.313,-2.39" /><path
         id="path120"
         style="fill:#fabeac;fill-opacity:1;fill-rule:nonzero;stroke:none"
         d="m 462.316,243.781 c -6.433,0.012 -11.859,4.137 -11.898,9.602 0.039,5.457 5.465,9.582 11.898,9.594 6.434,-0.012 11.86,-4.137 11.899,-9.594 v 0 0 0 c -0.039,-5.465 -5.465,-9.59 -11.899,-9.602 m 0,1.653 h 0.004 c 2.879,0 5.469,0.925 7.313,2.39 1.847,1.465 2.93,3.422 2.933,5.559 -0.003,2.129 -1.086,4.086 -2.933,5.555 -1.844,1.457 -4.434,2.386 -7.313,2.386 h -0.004 c -0.003,0 -0.003,0 -0.007,0 -2.875,0 -5.469,-0.929 -7.313,-2.386 -1.844,-1.469 -2.93,-3.426 -2.93,-5.555 0,-2.137 1.086,-4.094 2.93,-5.559 1.844,-1.465 4.438,-2.39 7.313,-2.39 0.004,0 0.004,0 0.007,0 m 11.899,7.949 v 0 0" /><path
         id="path122"
         style="fill:#ffffff;fill-opacity:1;fill-rule:nonzero;stroke:none"
         d="m 415.883,262.977 c -0.004,0 -0.004,0 -0.008,0 -0.004,0 -0.004,0 -0.004,0 -2.883,0 -5.473,0.925 -7.312,2.386 -1.844,1.465 -2.926,3.422 -2.926,5.559 0,2.129 1.082,4.086 2.926,5.555 1.839,1.457 4.429,2.386 7.312,2.386 h 0.004 c 0.004,0 0.004,0 0.008,0 2.875,0 5.465,-0.929 7.308,-2.386 1.844,-1.469 2.926,-3.426 2.93,-5.555 -0.004,-2.137 -1.086,-4.09 -2.93,-5.559 -1.843,-1.461 -4.433,-2.386 -7.308,-2.386" /><path
         id="path124"
         style="fill:#fabeac;fill-opacity:1;fill-rule:nonzero;stroke:none"
         d="m 415.875,261.324 c -6.437,0.012 -11.855,4.133 -11.895,9.598 0.04,5.457 5.458,9.582 11.895,9.594 6.434,-0.012 11.855,-4.137 11.895,-9.594 v 0 0 0 c -0.04,-5.465 -5.461,-9.586 -11.895,-9.598 m 0,1.653 c 0.004,0 0.004,0 0.008,0 2.875,0 5.465,0.925 7.308,2.386 1.844,1.469 2.926,3.422 2.93,5.559 -0.004,2.129 -1.086,4.086 -2.93,5.555 -1.843,1.457 -4.433,2.386 -7.308,2.386 -0.004,0 -0.004,0 -0.008,0 h -0.004 c -2.883,0 -5.473,-0.929 -7.312,-2.386 -1.844,-1.469 -2.926,-3.426 -2.926,-5.555 0,-2.137 1.082,-4.094 2.926,-5.559 1.839,-1.461 4.429,-2.386 7.312,-2.386 0,0 0,0 0.004,0 m 11.895,7.945 v 0 0" /><path
         id="path126"
         style="fill:#ffffff;fill-opacity:1;fill-rule:nonzero;stroke:none"
         d="m 509.734,271.746 c -0.004,0 -0.004,0 -0.007,0 h -0.004 c -2.883,0 -5.477,0.93 -7.317,2.391 -1.843,1.465 -2.926,3.422 -2.926,5.554 0,2.129 1.083,4.086 2.926,5.555 1.84,1.465 4.434,2.395 7.317,2.395 h 0.004 c 0.003,0 0.003,0 0.007,0 2.875,0 5.465,-0.93 7.305,-2.395 1.844,-1.469 2.926,-3.426 2.93,-5.555 -0.004,-2.132 -1.086,-4.089 -2.93,-5.554 -1.84,-1.461 -4.43,-2.391 -7.305,-2.391" /><path
         id="path128"
         style="fill:#fabeac;fill-opacity:1;fill-rule:nonzero;stroke:none"
         d="m 509.727,270.094 c -6.442,0.011 -11.86,4.136 -11.899,9.597 0.039,5.457 5.457,9.59 11.899,9.598 6.433,-0.008 11.851,-4.141 11.89,-9.598 v 0 0 0 c -0.039,-5.461 -5.457,-9.586 -11.89,-9.597 m 0,1.652 c 0.003,0 0.003,0 0.007,0 2.875,0 5.465,0.93 7.305,2.391 1.844,1.465 2.926,3.422 2.93,5.554 -0.004,2.129 -1.086,4.086 -2.93,5.555 -1.84,1.465 -4.43,2.395 -7.305,2.395 -0.004,0 -0.004,0 -0.007,0 h -0.004 c -2.883,0 -5.477,-0.93 -7.317,-2.395 -1.843,-1.469 -2.926,-3.426 -2.926,-5.555 0,-2.132 1.083,-4.089 2.926,-5.554 1.84,-1.461 4.434,-2.391 7.317,-2.391 h 0.004 m 11.89,7.945 v 0 0" /><path
         id="path130"
         style="fill:#ffffff;fill-opacity:1;fill-rule:nonzero;stroke:none"
         d="m 26.6367,222.523 -24.46873,88.235 0.4375,-1.086 C -10.4102,360.445 111.344,435.523 274.543,477.359 c 71.316,18.286 138.754,27.196 193.16,27.196 70.113,0 118.598,-14.789 125.93,-43.379 l 23.726,-85.965 c -6.683,10.148 -19.171,17.961 -36.031,23.586 -22.066,7.351 -51.855,11.047 -87.023,11.051 -54.59,0 -122.141,-8.93 -193.582,-27.243 C 194.742,355.422 105.125,313.289 59.2344,273.633 l 1.0742,-1.242 -1.082,1.234 C 39.2109,256.012 27.4141,238.672 26.6367,222.523" /><path
         id="path132"
         style="fill:#dedede;fill-opacity:1;fill-rule:nonzero;stroke:none"
         d="m 29.1953,213.289 -2.5586,9.234 c 0.7774,16.149 12.5742,33.489 32.5899,51.102 l 1.082,-1.234 1.0859,-1.254 v 0 c -20.4023,-17.891 -31.5507,-35.301 -31.5,-50.215 0,-2.465 0.2969,-4.871 0.8985,-7.223 l -1.5977,-0.41" /><path
         id="path134"
         style="fill:#c8c7c7;fill-opacity:1;fill-rule:nonzero;stroke:none"
         d="m 61.3945,271.137 -1.0859,1.254 -1.0742,1.242 c 45.8906,39.656 135.5076,81.789 241.4886,108.972 71.441,18.313 138.992,27.243 193.582,27.243 35.168,-0.004 64.957,-3.7 87.023,-11.051 16.86,-5.625 29.348,-13.438 36.031,-23.586 l 2.868,-10.391 v 0 l -1.598,-0.41 c -0.289,1.137 -0.649,2.25 -1.074,3.344 -0.481,1.219 -1.043,2.41 -1.692,3.578 -5.672,10.203 -17.843,18.422 -35.578,24.336 -21.527,7.184 -51.019,10.883 -85.933,10.883 -0.016,0 -0.036,0 -0.047,0 -0.008,0 -0.008,0 -0.016,0 -54.23,0 -121.551,-8.891 -192.746,-27.141 C 195.945,352.355 106.578,310.23 61.3945,271.137 v 0" /><path
         id="path136"
         style="fill:#4f4c4c;fill-opacity:1;fill-rule:nonzero;stroke:none"
         d="m 593.633,461.176 -1.59,-0.442 26.594,-96.351 1.59,0.437 -1.532,0.614 -0.011,-0.024 -0.2,-0.5 0.133,-0.523 c 0.606,-2.36 0.903,-4.77 0.903,-7.242 0.023,-11.938 -7.047,-25.454 -20.368,-39.551 C 559.23,275.242 464.043,228.457 347.859,198.703 276.66,180.453 209.34,171.563 155.109,171.566 c -34.933,-0.003 -64.441,3.696 -85.9762,10.883 -21.582,7.196 -34.9297,17.805 -38.3398,31.25 l -0.0039,0.016 -27.03129,97.484 -1.58984,-0.441 -1.531251,-0.61 0.433591,-1.089 3.13282,1.019 c -0.60547,2.36 -0.90235,4.77 -0.90235,7.242 -0.02344,11.938 7.04692,25.453 20.36722,39.551 39.9179,42.352 135.102,89.141 251.285,118.891 71.199,18.254 138.52,27.144 192.75,27.14 34.938,0.004 64.445,-3.695 85.985,-10.882 21.585,-7.196 34.933,-17.809 38.347,-31.254 l 0.004,-0.016 0.004,-0.016 1.59,0.442 1.597,0.41 c -3.917,15.141 -18.484,26.219 -40.5,33.562 -22.066,7.356 -51.855,11.051 -87.027,11.055 v 0 c -54.586,0 -122.133,-8.93 -193.57,-27.242 C 196.41,459.031 128.07,431.59 79.0664,402.754 54.5625,388.328 34.8867,373.563 21.2656,359.137 7.66797,344.715 0.0234375,330.594 0,317.32 v 0 c 0,-2.734 0.332031,-5.429 1.00391,-8.058 l 1.60156,0.41 1.53125,0.609 -0.43359,1.09 -3.125005,-1.055 27.027375,-97.468 1.5898,0.441 -1.5976,-0.41 c 3.914,-15.141 18.4765,-26.219 40.4921,-33.563 22.0625,-7.351 51.8482,-11.046 87.0192,-11.05 54.586,0 122.133,8.929 193.571,27.242 77.722,19.926 146.062,47.367 195.074,76.207 24.504,14.422 44.18,29.187 57.797,43.613 13.601,14.422 21.246,28.543 21.269,41.817 0,2.738 -0.332,5.429 -1.007,8.062 l -1.598,-0.41 1.531,-0.613 0.012,0.027 0.207,0.516 -26.738,96.886 -1.594,-0.437 1.597,0.41 -1.597,-0.41" /><path
         id="path138"
         style="fill:#4f4c4c;fill-opacity:1;fill-rule:nonzero;stroke:none"
         d="M 1.00391,309.262 C 5.98047,290.227 27.5508,277.656 59.9727,270.77 c 19.2421,-4.071 42.4293,-6.122 68.5933,-6.122 54.579,0 122.102,8.93 193.524,27.239 106.875,27.41 195.969,68.965 241.527,108.945 20.692,18.195 32.571,36.102 32.617,52.699 0,2.735 -0.328,5.426 -1,8.051 l -3.199,-0.816 c 0.602,-2.356 0.899,-4.766 0.899,-7.235 0.05,-14.918 -11.075,-32.328 -31.493,-50.218 C 516.609,363.918 427.777,322.367 321.27,295.082 250.09,276.832 182.789,267.945 128.566,267.949 c -25.988,0 -48.9722,2.039 -67.9097,6.051 -32.0704,6.758 -52.2188,19.195 -56.45317,36.078 l -3.19922,-0.816" /></g></g></svg>