<?xml version="1.0" encoding="UTF-8" standalone="no"?>
<svg
   xmlns:dc="http://purl.org/dc/elements/1.1/"
   xmlns:cc="http://creativecommons.org/ns#"
   xmlns:rdf="http://www.w3.org/1999/02/22-rdf-syntax-ns#"
   xmlns:svg="http://www.w3.org/2000/svg"
   xmlns="http://www.w3.org/2000/svg"
   viewBox="0 500 793.70135 122.52"
   height="350"
   width="793.70135"
   xml:space="preserve"
   id="svg2"
   version="1.1"><metadata
     id="metadata8"><rdf:RDF><cc:Work
         rdf:about=""><dc:format>image/svg+xml</dc:format><dc:type
           rdf:resource="http://purl.org/dc/dcmitype/StillImage" /></cc:Work></rdf:RDF></metadata><defs
     id="defs6"><clipPath
       id="clipPath18"
       clipPathUnits="userSpaceOnUse"><path
         id="path16"
         d="M 0,841.89 H 595.276 V 0 H 0 Z" /></clipPath><clipPath
       id="clipPath26"
       clipPathUnits="userSpaceOnUse"><path
         id="path24"
         d="M 13.2488,458.517 H 53.1214 V 440.393 H 13.2488 Z" /></clipPath><clipPath
       id="clipPath42"
       clipPathUnits="userSpaceOnUse"><path
         id="path40"
         d="M 12.7488,459.017 H 53.6214 V 439.893 H 12.7488 Z" /></clipPath><clipPath
       id="clipPath58"
       clipPathUnits="userSpaceOnUse"><path
         id="path56"
         d="m 273.831,453.076 h 39.872 v -18.125 h -39.872 z" /></clipPath><clipPath
       id="clipPath74"
       clipPathUnits="userSpaceOnUse"><path
         id="path72"
         d="m 273.331,453.576 h 40.872 v -19.125 h -40.872 z" /></clipPath><clipPath
       id="clipPath90"
       clipPathUnits="userSpaceOnUse"><path
         id="path88"
         d="m 425.04,418.873 h 39.873 V 400.748 H 425.04 Z" /></clipPath><clipPath
       id="clipPath106"
       clipPathUnits="userSpaceOnUse"><path
         id="path104"
         d="m 424.54,419.373 h 40.873 V 400.248 H 424.54 Z" /></clipPath><clipPath
       id="clipPath122"
       clipPathUnits="userSpaceOnUse"><path
         id="path120"
         d="m 158.884,425.941 h 39.873 v -18.124 h -39.873 z" /></clipPath><clipPath
       id="clipPath138"
       clipPathUnits="userSpaceOnUse"><path
         id="path136"
         d="m 158.384,426.441 h 40.873 v -19.124 h -40.873 z" /></clipPath><clipPath
       id="clipPath154"
       clipPathUnits="userSpaceOnUse"><path
         id="path152"
         d="m 182.281,520.061 h 17.745 v -17.745 h -17.745 z" /></clipPath><clipPath
       id="clipPath170"
       clipPathUnits="userSpaceOnUse"><path
         id="path168"
         d="m 181.781,520.561 h 18.745 v -18.745 h -18.745 z" /></clipPath><clipPath
       id="clipPath186"
       clipPathUnits="userSpaceOnUse"><path
         id="path184"
         d="m 289.028,356.536 h 17.745 v -17.745 h -17.745 z" /></clipPath><clipPath
       id="clipPath202"
       clipPathUnits="userSpaceOnUse"><path
         id="path200"
         d="m 288.528,357.036 h 18.745 v -18.745 h -18.745 z" /></clipPath><clipPath
       id="clipPath218"
       clipPathUnits="userSpaceOnUse"><path
         id="path216"
         d="m 318.469,505.635 h 39.873 V 487.51 h -39.873 z" /></clipPath><clipPath
       id="clipPath234"
       clipPathUnits="userSpaceOnUse"><path
         id="path232"
         d="m 317.969,506.135 h 40.873 V 487.01 h -40.873 z" /></clipPath><clipPath
       id="clipPath250"
       clipPathUnits="userSpaceOnUse"><path
         id="path248"
         d="m 320.661,505.445 h 17.745 V 487.7 h -17.745 z" /></clipPath><clipPath
       id="clipPath266"
       clipPathUnits="userSpaceOnUse"><path
         id="path264"
         d="m 320.161,505.945 h 18.745 V 487.2 h -18.745 z" /></clipPath><clipPath
       id="clipPath282"
       clipPathUnits="userSpaceOnUse"><path
         id="path280"
         d="m 115.658,370.315 h 39.873 v -18.124 h -39.873 z" /></clipPath><clipPath
       id="clipPath298"
       clipPathUnits="userSpaceOnUse"><path
         id="path296"
         d="m 115.158,370.815 h 40.873 v -19.124 h -40.873 z" /></clipPath><clipPath
       id="clipPath314"
       clipPathUnits="userSpaceOnUse"><path
         id="path312"
         d="m 117.849,370.126 h 17.746 V 352.38 h -17.746 z" /></clipPath><clipPath
       id="clipPath330"
       clipPathUnits="userSpaceOnUse"><path
         id="path328"
         d="m 117.349,370.626 h 18.746 V 351.88 h -18.746 z" /></clipPath></defs><g
     transform="matrix(1.3333333,0,0,-1.3333333,0,1122.52)"
     id="g10"><g
       id="g12"><g
         clip-path="url(#clipPath18)"
         id="g14"><g
           id="g20"><g
             id="g22" /><g
             id="g34"><g
               style="opacity:0.5"
               id="g32"
               clip-path="url(#clipPath26)"><g
                 id="g30"
                 transform="translate(53.1216,449.4551)"><path
                   id="path28"
                   style="fill:#e4007f;fill-opacity:1;fill-rule:nonzero;stroke:none"
                   d="m 0,0 c 0,-5.005 -8.926,-9.063 -19.937,-9.063 -11.01,0 -19.936,4.058 -19.936,9.063 0,5.005 8.926,9.062 19.936,9.062 C -8.926,9.062 0,5.005 0,0" /></g></g></g></g><g
           id="g36"><g
             id="g38" /><g
             id="g50"><g
               style="opacity:0.5"
               id="g48"
               clip-path="url(#clipPath42)"><g
                 id="g46"
                 transform="translate(53.1216,449.4551)"><path
                   id="path44"
                   style="fill:none;stroke:#231815;stroke-width:1;stroke-linecap:butt;stroke-linejoin:miter;stroke-miterlimit:10;stroke-dasharray:none;stroke-opacity:1"
                   d="m 0,0 c 0,-5.005 -8.926,-9.063 -19.937,-9.063 -11.01,0 -19.936,4.058 -19.936,9.063 0,5.005 8.926,9.062 19.936,9.062 C -8.926,9.062 0,5.005 0,0 Z" /></g></g></g></g><g
           id="g52"><g
             id="g54" /><g
             id="g66"><g
               style="opacity:0.5"
               id="g64"
               clip-path="url(#clipPath58)"><g
                 id="g62"
                 transform="translate(313.7031,444.0137)"><path
                   id="path60"
                   style="fill:#e4007f;fill-opacity:1;fill-rule:nonzero;stroke:none"
                   d="m 0,0 c 0,-5.005 -8.926,-9.063 -19.936,-9.063 -11.01,0 -19.936,4.058 -19.936,9.063 0,5.005 8.926,9.062 19.936,9.062 C -8.926,9.062 0,5.005 0,0" /></g></g></g></g><g
           id="g68"><g
             id="g70" /><g
             id="g82"><g
               style="opacity:0.5"
               id="g80"
               clip-path="url(#clipPath74)"><g
                 id="g78"
                 transform="translate(313.7031,444.0137)"><path
                   id="path76"
                   style="fill:none;stroke:#231815;stroke-width:1;stroke-linecap:butt;stroke-linejoin:miter;stroke-miterlimit:10;stroke-dasharray:none;stroke-opacity:1"
                   d="m 0,0 c 0,-5.005 -8.926,-9.063 -19.936,-9.063 -11.01,0 -19.936,4.058 -19.936,9.063 0,5.005 8.926,9.062 19.936,9.062 C -8.926,9.062 0,5.005 0,0 Z" /></g></g></g></g><g
           id="g84"><g
             id="g86" /><g
             id="g98"><g
               style="opacity:0.5"
               id="g96"
               clip-path="url(#clipPath90)"><g
                 id="g94"
                 transform="translate(464.9131,409.8105)"><path
                   id="path92"
                   style="fill:#00a0e9;fill-opacity:1;fill-rule:nonzero;stroke:none"
                   d="m 0,0 c 0,-5.005 -8.926,-9.063 -19.937,-9.063 -11.01,0 -19.936,4.058 -19.936,9.063 0,5.005 8.926,9.063 19.936,9.063 C -8.926,9.063 0,5.005 0,0" /></g></g></g></g><g
           id="g100"><g
             id="g102" /><g
             id="g114"><g
               style="opacity:0.5"
               id="g112"
               clip-path="url(#clipPath106)"><g
                 id="g110"
                 transform="translate(464.9131,409.8105)"><path
                   id="path108"
                   style="fill:none;stroke:#231815;stroke-width:1;stroke-linecap:butt;stroke-linejoin:miter;stroke-miterlimit:10;stroke-dasharray:none;stroke-opacity:1"
                   d="m 0,0 c 0,-5.005 -8.926,-9.063 -19.937,-9.063 -11.01,0 -19.936,4.058 -19.936,9.063 0,5.005 8.926,9.063 19.936,9.063 C -8.926,9.063 0,5.005 0,0 Z" /></g></g></g></g><g
           id="g116"><g
             id="g118" /><g
             id="g130"><g
               style="opacity:0.5"
               id="g128"
               clip-path="url(#clipPath122)"><g
                 id="g126"
                 transform="translate(198.7568,416.8789)"><path
                   id="path124"
                   style="fill:#00a0e9;fill-opacity:1;fill-rule:nonzero;stroke:none"
                   d="m 0,0 c 0,-5.005 -8.926,-9.063 -19.937,-9.063 -11.01,0 -19.936,4.058 -19.936,9.063 0,5.005 8.926,9.063 19.936,9.063 C -8.926,9.063 0,5.005 0,0" /></g></g></g></g><g
           id="g132"><g
             id="g134" /><g
             id="g146"><g
               style="opacity:0.5"
               id="g144"
               clip-path="url(#clipPath138)"><g
                 id="g142"
                 transform="translate(198.7568,416.8789)"><path
                   id="path140"
                   style="fill:none;stroke:#231815;stroke-width:1;stroke-linecap:butt;stroke-linejoin:miter;stroke-miterlimit:10;stroke-dasharray:none;stroke-opacity:1"
                   d="m 0,0 c 0,-5.005 -8.926,-9.063 -19.937,-9.063 -11.01,0 -19.936,4.058 -19.936,9.063 0,5.005 8.926,9.063 19.936,9.063 C -8.926,9.063 0,5.005 0,0 Z" /></g></g></g></g><g
           id="g148"><g
             id="g150" /><g
             id="g162"><g
               style="opacity:0.5"
               id="g160"
               clip-path="url(#clipPath154)"><g
                 id="g158"
                 transform="translate(200.0264,511.1885)"><path
                   id="path156"
                   style="fill:#e4007f;fill-opacity:1;fill-rule:nonzero;stroke:none"
                   d="m 0,0 c 0,-4.9 -3.972,-8.873 -8.873,-8.873 -4.899,0 -8.872,3.973 -8.872,8.873 0,4.9 3.973,8.873 8.872,8.873 C -3.972,8.873 0,4.9 0,0" /></g></g></g></g><g
           id="g164"><g
             id="g166" /><g
             id="g178"><g
               style="opacity:0.5"
               id="g176"
               clip-path="url(#clipPath170)"><g
                 id="g174"
                 transform="translate(200.0264,511.1885)"><path
                   id="path172"
                   style="fill:none;stroke:#231815;stroke-width:1;stroke-linecap:butt;stroke-linejoin:miter;stroke-miterlimit:10;stroke-dasharray:none;stroke-opacity:1"
                   d="m 0,0 c 0,-4.9 -3.972,-8.873 -8.873,-8.873 -4.899,0 -8.872,3.973 -8.872,8.873 0,4.9 3.973,8.873 8.872,8.873 C -3.972,8.873 0,4.9 0,0 Z" /></g></g></g></g><g
           id="g180"><g
             id="g182" /><g
             id="g194"><g
               style="opacity:0.5"
               id="g192"
               clip-path="url(#clipPath186)"><g
                 id="g190"
                 transform="translate(306.7725,347.6641)"><path
                   id="path188"
                   style="fill:#00a0e9;fill-opacity:1;fill-rule:nonzero;stroke:none"
                   d="m 0,0 c 0,-4.9 -3.972,-8.873 -8.872,-8.873 -4.9,0 -8.873,3.973 -8.873,8.873 0,4.899 3.973,8.872 8.873,8.872 C -3.972,8.872 0,4.899 0,0" /></g></g></g></g><g
           id="g196"><g
             id="g198" /><g
             id="g210"><g
               style="opacity:0.5"
               id="g208"
               clip-path="url(#clipPath202)"><g
                 id="g206"
                 transform="translate(306.7725,347.6641)"><path
                   id="path204"
                   style="fill:none;stroke:#231815;stroke-width:1;stroke-linecap:butt;stroke-linejoin:miter;stroke-miterlimit:10;stroke-dasharray:none;stroke-opacity:1"
                   d="m 0,0 c 0,-4.9 -3.972,-8.873 -8.872,-8.873 -4.9,0 -8.873,3.973 -8.873,8.873 0,4.899 3.973,8.872 8.873,8.872 C -3.972,8.872 0,4.899 0,0 Z" /></g></g></g></g><g
           id="g212"><g
             id="g214" /><g
             id="g226"><g
               style="opacity:0.5"
               id="g224"
               clip-path="url(#clipPath218)"><g
                 id="g222"
                 transform="translate(358.3418,496.5723)"><path
                   id="path220"
                   style="fill:#e4007f;fill-opacity:1;fill-rule:nonzero;stroke:none"
                   d="m 0,0 c 0,-5.005 -8.926,-9.062 -19.937,-9.062 -11.009,0 -19.935,4.057 -19.935,9.062 0,5.005 8.926,9.063 19.935,9.063 C -8.926,9.063 0,5.005 0,0" /></g></g></g></g><g
           id="g228"><g
             id="g230" /><g
             id="g242"><g
               style="opacity:0.5"
               id="g240"
               clip-path="url(#clipPath234)"><g
                 id="g238"
                 transform="translate(358.3418,496.5723)"><path
                   id="path236"
                   style="fill:none;stroke:#231815;stroke-width:1;stroke-linecap:butt;stroke-linejoin:miter;stroke-miterlimit:10;stroke-dasharray:none;stroke-opacity:1"
                   d="m 0,0 c 0,-5.005 -8.926,-9.062 -19.937,-9.062 -11.009,0 -19.935,4.057 -19.935,9.062 0,5.005 8.926,9.063 19.935,9.063 C -8.926,9.063 0,5.005 0,0 Z" /></g></g></g></g><g
           id="g244"><g
             id="g246" /><g
             id="g258"><g
               style="opacity:0.5"
               id="g256"
               clip-path="url(#clipPath250)"><g
                 id="g254"
                 transform="translate(338.4053,496.5723)"><path
                   id="path252"
                   style="fill:#e4007f;fill-opacity:1;fill-rule:nonzero;stroke:none"
                   d="m 0,0 c 0,-4.9 -3.972,-8.873 -8.872,-8.873 -4.9,0 -8.873,3.973 -8.873,8.873 0,4.9 3.973,8.873 8.873,8.873 C -3.972,8.873 0,4.9 0,0" /></g></g></g></g><g
           id="g260"><g
             id="g262" /><g
             id="g274"><g
               style="opacity:0.5"
               id="g272"
               clip-path="url(#clipPath266)"><g
                 id="g270"
                 transform="translate(338.4053,496.5723)"><path
                   id="path268"
                   style="fill:none;stroke:#231815;stroke-width:1;stroke-linecap:butt;stroke-linejoin:miter;stroke-miterlimit:10;stroke-dasharray:none;stroke-opacity:1"
                   d="m 0,0 c 0,-4.9 -3.972,-8.873 -8.872,-8.873 -4.9,0 -8.873,3.973 -8.873,8.873 0,4.9 3.973,8.873 8.873,8.873 C -3.972,8.873 0,4.9 0,0 Z" /></g></g></g></g><g
           id="g276"><g
             id="g278" /><g
             id="g290"><g
               style="opacity:0.5"
               id="g288"
               clip-path="url(#clipPath282)"><g
                 id="g286"
                 transform="translate(155.5308,361.2529)"><path
                   id="path284"
                   style="fill:#00a0e9;fill-opacity:1;fill-rule:nonzero;stroke:none"
                   d="m 0,0 c 0,-5.005 -8.926,-9.063 -19.936,-9.063 -11.011,0 -19.937,4.058 -19.937,9.063 0,5.005 8.926,9.063 19.937,9.063 C -8.926,9.063 0,5.005 0,0" /></g></g></g></g><g
           id="g292"><g
             id="g294" /><g
             id="g306"><g
               style="opacity:0.5"
               id="g304"
               clip-path="url(#clipPath298)"><g
                 id="g302"
                 transform="translate(155.5308,361.2529)"><path
                   id="path300"
                   style="fill:none;stroke:#231815;stroke-width:1;stroke-linecap:butt;stroke-linejoin:miter;stroke-miterlimit:10;stroke-dasharray:none;stroke-opacity:1"
                   d="m 0,0 c 0,-5.005 -8.926,-9.063 -19.936,-9.063 -11.011,0 -19.937,4.058 -19.937,9.063 0,5.005 8.926,9.063 19.937,9.063 C -8.926,9.063 0,5.005 0,0 Z" /></g></g></g></g><g
           id="g308"><g
             id="g310" /><g
             id="g322"><g
               style="opacity:0.5"
               id="g320"
               clip-path="url(#clipPath314)"><g
                 id="g318"
                 transform="translate(135.5947,361.2529)"><path
                   id="path316"
                   style="fill:#00a0e9;fill-opacity:1;fill-rule:nonzero;stroke:none"
                   d="m 0,0 c 0,-4.9 -3.973,-8.872 -8.873,-8.872 -4.9,0 -8.872,3.972 -8.872,8.872 0,4.9 3.972,8.873 8.872,8.873 C -3.973,8.873 0,4.9 0,0" /></g></g></g></g><g
           id="g324"><g
             id="g326" /><g
             id="g338"><g
               style="opacity:0.5"
               id="g336"
               clip-path="url(#clipPath330)"><g
                 id="g334"
                 transform="translate(135.5947,361.2529)"><path
                   id="path332"
                   style="fill:none;stroke:#231815;stroke-width:1;stroke-linecap:butt;stroke-linejoin:miter;stroke-miterlimit:10;stroke-dasharray:none;stroke-opacity:1"
                   d="m 0,0 c 0,-4.9 -3.973,-8.872 -8.873,-8.872 -4.9,0 -8.872,3.972 -8.872,8.872 0,4.9 3.972,8.873 8.872,8.873 C -3.973,8.873 0,4.9 0,0 Z" /></g></g></g></g></g></g><g
       transform="translate(23,425.9414)"
       id="g340"><path
         id="path342"
         style="fill:none;stroke:#000000;stroke-width:3;stroke-linecap:butt;stroke-linejoin:miter;stroke-miterlimit:10;stroke-dasharray:none;stroke-opacity:1"
         d="M 0,0 H 549" /></g><path
       id="path344"
       style="fill:#8ec42e;fill-opacity:1;fill-rule:nonzero;stroke:none"
       d="M 559.54,425.941 H 457.131 v 5.271 H 559.54 Z" /><path
       id="path346"
       style="fill:#00a0e9;fill-opacity:1;fill-rule:nonzero;stroke:none"
       d="m 440.815,425.941 h -102.41 v 5.271 h 102.41 z" /><path
       id="path348"
       style="fill:#e4007f;fill-opacity:1;fill-rule:nonzero;stroke:none"
       d="M 135.595,425.941 H 33.185 v 5.271 h 102.41 z" /><g
       transform="translate(161.1968,444.0137)"
       id="g350"><path
         id="path352"
         style="fill:#00a0e9;fill-opacity:1;fill-rule:nonzero;stroke:none"
         d="M 0,0 -17.57,-18.072 H 59.739 V -7.53 L 0.502,-7.028 Z" /></g><g
       transform="translate(310.293,444.0137)"
       id="g354"><path
         id="path356"
         style="fill:#e4007f;fill-opacity:1;fill-rule:nonzero;stroke:none"
         d="M 0,0 17.57,-18.072 H -59.739 V -7.53 l 59.237,0.502 z" /></g><g
       transform="translate(434.791,420.5)"
       id="g358"><path
         id="path360"
         style="fill:none;stroke:#000000;stroke-width:3;stroke-linecap:butt;stroke-linejoin:miter;stroke-miterlimit:10;stroke-dasharray:none;stroke-opacity:1"
         d="M 0,0 V -36.36 H -256.638 V 0" /></g><g
       transform="translate(187.9575,420.5)"
       id="g362"><path
         id="path364"
         style="fill:none;stroke:#000000;stroke-width:3;stroke-linecap:butt;stroke-linejoin:miter;stroke-miterlimit:10;stroke-dasharray:none;stroke-opacity:1"
         d="M 0,0 H -18.274" /></g><g
       transform="translate(434.791,384.1396)"
       id="g366"><path
         id="path368"
         style="fill:none;stroke:#000000;stroke-width:3;stroke-linecap:butt;stroke-linejoin:miter;stroke-miterlimit:10;stroke-dasharray:none;stroke-opacity:1"
         d="M 0,0 H -256.638" /></g><g
       transform="translate(187.9575,420.5)"
       id="g370"><path
         id="path372"
         style="fill:none;stroke:#000000;stroke-width:3;stroke-linecap:butt;stroke-linejoin:miter;stroke-miterlimit:10;stroke-dasharray:none;stroke-opacity:1"
         d="M 0,0 H -18.274" /></g><g
       transform="translate(178.1528,384.1396)"
       id="g374"><path
         id="path376"
         style="fill:none;stroke:#000000;stroke-width:3;stroke-linecap:butt;stroke-linejoin:miter;stroke-miterlimit:10;stroke-dasharray:none;stroke-opacity:1"
         d="M 0,0 V 36.36" /></g><g
       transform="translate(434.791,384.1396)"
       id="g378"><path
         id="path380"
         style="fill:none;stroke:#000000;stroke-width:3;stroke-linecap:butt;stroke-linejoin:miter;stroke-miterlimit:10;stroke-dasharray:none;stroke-opacity:1"
         d="M 0,0 H -256.638" /></g><g
       transform="translate(187.9575,420.5)"
       id="g382"><path
         id="path384"
         style="fill:none;stroke:#000000;stroke-width:3;stroke-linecap:butt;stroke-linejoin:miter;stroke-miterlimit:10;stroke-dasharray:none;stroke-opacity:1"
         d="M 0,0 H -18.274" /></g><g
       transform="translate(37.1289,439.4604)"
       id="g386"><path
         id="path388"
         style="fill:none;stroke:#000000;stroke-width:3;stroke-linecap:butt;stroke-linejoin:miter;stroke-miterlimit:10;stroke-dasharray:none;stroke-opacity:1"
         d="M 0,0 V 36.361" /></g><g
       transform="translate(293.7671,475.8213)"
       id="g390"><path
         id="path392"
         style="fill:none;stroke:#000000;stroke-width:3;stroke-linecap:butt;stroke-linejoin:miter;stroke-miterlimit:10;stroke-dasharray:none;stroke-opacity:1"
         d="M 0,0 V -36.361" /></g><g
       transform="translate(37.1289,475.8213)"
       id="g394"><path
         id="path396"
         style="fill:none;stroke:#000000;stroke-width:3;stroke-linecap:butt;stroke-linejoin:miter;stroke-miterlimit:10;stroke-dasharray:none;stroke-opacity:1"
         d="M 0,0 H 256.638" /></g><g
       transform="translate(283.9624,439.4604)"
       id="g398"><path
         id="path400"
         style="fill:none;stroke:#000000;stroke-width:3;stroke-linecap:butt;stroke-linejoin:miter;stroke-miterlimit:10;stroke-dasharray:none;stroke-opacity:1"
         d="M 0,0 H 18.275" /></g><g
       transform="translate(288.812,355.2061)"
       id="g402"><path
         id="path404"
         style="fill:none;stroke:#000000;stroke-width:3;stroke-linecap:butt;stroke-linejoin:miter;stroke-miterlimit:10;stroke-dasharray:none;stroke-opacity:1"
         d="M 0,0 V 20.564" /></g><g
       transform="translate(279.5581,375.7705)"
       id="g406"><path
         id="path408"
         style="fill:none;stroke:#000000;stroke-width:3;stroke-linecap:butt;stroke-linejoin:miter;stroke-miterlimit:10;stroke-dasharray:none;stroke-opacity:1"
         d="M 0,0 H 17.994" /></g><g
       transform="translate(179.0776,506.665)"
       id="g410"><path
         id="path412"
         style="fill:none;stroke:#000000;stroke-width:3;stroke-linecap:butt;stroke-linejoin:miter;stroke-miterlimit:10;stroke-dasharray:none;stroke-opacity:1"
         d="M 0,0 V -20.565" /></g><g
       transform="translate(169.8232,486.1001)"
       id="g414"><path
         id="path416"
         style="fill:none;stroke:#000000;stroke-width:3;stroke-linecap:butt;stroke-linejoin:miter;stroke-miterlimit:10;stroke-dasharray:none;stroke-opacity:1"
         d="M 0,0 H 17.994" /></g><text
       id="text428"
       style="font-variant:normal;font-weight:normal;font-stretch:normal;font-size:12px;font-family:HGSoeiKakugothicUB;-inkscape-font-specification:HGSoeiKakugothicUB;writing-mode:lr-tb;fill:#000000;fill-opacity:1;fill-rule:nonzero;stroke:none"
       transform="matrix(1,0,0,-1,150.2783,449.4546)"><tspan
         id="tspan418"
         y="0"
         x="0 12 24 36 48 60 72">プロモーター１</tspan><tspan
         id="tspan420"
         y="41.388"
         x="100.272 112.272 124.272 136.272 148.272 160.272 172.272">プロモーター２</tspan><tspan
         id="tspan422"
         y="9.9960003"
         x="199.968 211.968 223.968 235.968 247.968 259.96799 271.96799 -94.872002 -82.872002 -70.872002 -58.872002 -46.872002 -34.872002 -22.872 314.62799 326.62799 338.62799 350.62799 362.62799 374.62799 386.62799 398.62799">リプレッサー１リプレッサー２レポーター遺伝子</tspan><tspan
         id="tspan424"
         y="106.224"
         x="60.060001 72.059998 84.059998 96.059998 108.06 120.06 132.06 144.06 156.06 168.06 180.06 192.06 204.06 216.06">遺伝子発現を調節する小分子１</tspan><tspan
         id="tspan426"
         y="-57.66"
         x="-56.112 -44.112 -32.112 -20.112 -8.1120005 3.888 15.888 27.888 39.888 51.888 63.888 75.888 87.888 99.888">遺伝子発現を調節する小分子２</tspan></text>
<text
       id="text438"
       style="font-variant:normal;font-weight:normal;font-stretch:normal;font-size:12px;font-family:'Kozuka Gothic Pr6N R';-inkscape-font-specification:KozGoPr6N-Regular;writing-mode:lr-tb;fill:#000000;fill-opacity:1;fill-rule:nonzero;stroke:none"
       transform="matrix(1,0,0,-1,297.8903,457.6506)"><tspan
         id="tspan430"
         y="0"
         x="0 12 24 34.9212 45.6012 55.560001 66.239998 78.239998 90.239998 102.24 114.24">結合することで転写抑制</tspan><tspan
         id="tspan432"
         y="65.676003"
         x="-253.04401 -241.04401 -229.04401 -218.1228 -207.44279 -197.48399 -186.804 -174.804 -162.804 -150.804 -138.804">結合することで転写抑制</tspan><tspan
         id="tspan434"
         y="-53.543999"
         x="8.8800001 20.879999 32.880001 44.880001 56.880001 67.919998 76.800003 87.839996 99.839996 111.84 123.84">小分子がつくと抑制解除</tspan><tspan
         id="tspan436"
         y="118.848"
         x="-264.70801 -252.70799 -240.70799 -228.70799 -216.70799 -205.668 -196.78799 -185.748 -173.748 -161.748 -149.748">小分子がつくと抑制解除</tspan></text>
</g></svg>